<?xml version="1.0" standalone="no"?>
<!DOCTYPE svg PUBLIC "-//W3C//DTD SVG 20010904//EN"
 "http://www.w3.org/TR/2001/REC-SVG-20010904/DTD/svg10.dtd">
<svg version="1.0" xmlns="http://www.w3.org/2000/svg"
 width="448.000000pt" height="448.000000pt" viewBox="0 0 448.000000 448.000000"
 preserveAspectRatio="xMidYMid meet">

<g transform="translate(0.000000,448.000000) scale(0.100000,-0.100000)"
fill="#000000" stroke="none">
<path d="M0 2240 l0 -2240 2240 0 2240 0 0 2240 0 2240 -2240 0 -2240 0 0
-2240z m2385 945 c214 -54 386 -226 440 -440 19 -76 19 -214 0 -290 -34 -136
-132 -279 -236 -346 l-50 -33 89 -45 c167 -87 285 -205 367 -370 45 -90 85
-242 85 -322 l0 -59 -59 0 -60 0 -6 48 c-27 227 -107 386 -256 508 -192 157
-469 202 -708 115 -251 -92 -427 -314 -461 -582 -5 -46 -10 -85 -10 -86 0 -2
-27 -3 -60 -3 l-60 0 0 50 c0 73 27 193 62 277 79 192 235 353 424 440 51 23
56 28 40 37 -127 75 -232 218 -271 371 -19 76 -19 214 0 290 54 212 225 384
435 439 73 19 221 20 295 1z"/>
<path d="M2165 3070 c-375 -66 -528 -505 -275 -794 146 -166 424 -198 617 -70
214 143 272 442 127 661 -99 149 -294 233 -469 203z"/>
</g>
</svg>
